<?xml version="1.0" standalone="no"?>
<!DOCTYPE svg PUBLIC "-//W3C//DTD SVG 20010904//EN"
 "http://www.w3.org/TR/2001/REC-SVG-20010904/DTD/svg10.dtd">
<svg version="1.0" xmlns="http://www.w3.org/2000/svg"
 width="640.000000pt" height="640.000000pt" viewBox="0 0 640.000000 640.000000"
 preserveAspectRatio="xMidYMid meet">

<g transform="translate(0.000000,640.000000) scale(0.100000,-0.100000)"
fill="#000000" stroke="none">
<path d="M585 5160 c0 -256 1 -360 2 -233 2 128 2 338 0 465 -1 128 -2 24 -2
-232z"/>
<path d="M4687 4826 c-154 -57 -223 -235 -144 -369 l25 -41 -29 -27 c-47 -44
-40 -72 52 -216 89 -141 118 -173 155 -173 27 0 444 265 517 328 33 29 21 72
-54 193 -108 174 -112 179 -163 179 -38 0 -46 5 -75 40 -67 83 -191 121 -284
86z m141 -69 c34 -13 86 -57 102 -87 8 -16 -10 -31 -140 -114 -82 -53 -153
-96 -158 -96 -5 0 -20 23 -32 52 -35 80 -14 161 54 213 57 43 113 54 174 32z
m-24 -326 c-21 -42 5 -95 56 -114 11 -4 11 -6 -3 -6 -24 -1 -77 52 -77 78 0
24 20 71 31 71 4 0 1 -13 -7 -29z m-165 -246 c45 -69 84 -133 87 -143 3 -9
-35 45 -85 120 -85 128 -97 148 -87 148 2 0 41 -56 85 -125z"/>
<path d="M3175 4747 c-59 -29 -247 -152 -327 -214 -31 -25 -72 -68 -90 -96
-70 -105 -201 -349 -242 -449 -23 -57 -55 -123 -72 -148 -43 -62 -126 -230
-159 -320 -23 -65 -26 -84 -20 -145 11 -128 27 -159 136 -270 l99 -101 -93
-48 c-178 -95 -371 -217 -415 -264 -84 -90 -367 -424 -392 -462 -14 -21 -53
-92 -88 -158 -57 -108 -67 -121 -105 -138 -23 -11 -67 -35 -98 -55 -47 -31
-63 -49 -98 -115 -23 -43 -73 -116 -110 -163 -205 -259 -304 -413 -322 -499
-14 -70 -6 -159 24 -255 l23 -72 559 -3 c356 -1 556 1 550 7 -6 6 -77 14 -159
19 -128 7 -151 11 -162 27 -48 66 47 238 171 311 41 24 43 24 143 12 56 -6
105 -8 109 -5 9 10 -18 36 -42 40 -11 2 -37 11 -58 20 -20 9 -41 17 -45 18
-15 4 -31 35 -32 61 0 18 11 35 38 58 24 20 27 25 10 14 -61 -37 -22 0 90 84
138 104 154 114 127 81 -11 -13 -13 -18 -5 -11 24 20 27 15 33 -60 4 -40 12
-118 18 -174 11 -96 12 -101 34 -97 21 5 22 1 34 -114 6 -65 19 -189 28 -275
l16 -158 1034 0 1033 0 0 70 0 70 45 0 45 0 0 48 c0 44 -2 48 -38 67 -35 19
-37 23 -35 65 13 305 15 321 32 316 69 -21 69 -21 75 26 3 23 10 122 16 218 7
96 13 176 14 178 2 1 24 -14 49 -33 26 -20 47 -33 47 -30 0 3 -25 38 -55 78
-55 71 -87 128 -100 177 -3 14 9 -5 28 -42 19 -37 57 -96 85 -130 65 -82 158
-225 183 -283 11 -25 23 -45 26 -45 3 0 20 9 37 19 86 53 227 65 341 30 37
-11 65 -23 62 -25 -3 -3 -26 2 -52 11 -136 46 -311 16 -414 -71 -15 -13 -31
-21 -35 -17 -3 3 -14 -1 -24 -10 -10 -10 -45 -28 -78 -41 -93 -38 -84 -54 25
-43 85 8 92 7 128 -16 110 -70 183 -212 139 -273 -12 -16 -30 -20 -122 -24
l-107 -5 44 -43 c24 -23 67 -53 94 -66 49 -24 56 -24 456 -31 l406 -6 31 48
c76 119 87 151 86 248 -2 190 7 170 -197 446 -100 136 -268 372 -374 525 -294
427 -498 671 -608 727 -28 13 -122 54 -210 90 -170 70 -366 155 -373 162 -2 2
17 30 43 61 60 75 77 109 76 153 -1 20 -2 47 -1 61 1 21 -22 74 -94 215 -5 11
-22 104 -37 207 l-27 186 -158 272 c-168 288 -253 401 -376 500 -117 95 -192
116 -273 77z m95 -997 c70 -12 411 -123 389 -128 -8 -1 -66 16 -129 38 -179
64 -269 83 -395 83 -104 1 -121 -2 -331 -61 -122 -34 -235 -67 -250 -72 -18
-7 -25 -7 -19 -1 11 10 210 72 390 120 121 32 230 39 345 21z m6 -45 c41 -9
79 -13 84 -10 6 3 10 2 10 -3 0 -5 35 -18 78 -30 42 -12 129 -39 192 -60 l115
-39 -1 -241 c-1 -197 -4 -246 -17 -265 -22 -33 -112 -145 -155 -192 -20 -22
-70 -79 -110 -127 -83 -100 -120 -131 -181 -153 -87 -30 -155 -13 -271 71
l-49 35 -3 126 -3 126 -55 14 c-75 19 -158 71 -201 128 -59 76 -70 125 -76
343 -3 105 -3 192 0 192 3 0 75 18 159 40 83 22 153 38 155 37 1 -2 -9 -42
-24 -89 -14 -48 -23 -94 -20 -102 5 -12 21 -16 63 -16 66 0 68 5 5 14 -24 3
-46 8 -49 10 -2 3 10 48 28 100 30 91 33 95 63 99 77 9 194 6 263 -8z m-946
-208 c0 -2 -10 -12 -22 -23 l-23 -19 19 23 c18 21 26 27 26 19z m609 -941
c187 -214 310 -360 306 -365 -3 -2 -6 -2 -8 0 -2 2 -82 94 -178 204 -96 110
-196 227 -223 260 -76 91 -1 20 103 -99z m1638 92 c-79 -144 -138 -338 -156
-518 -8 -83 -8 -84 -10 -24 -3 162 79 432 176 581 30 46 24 21 -10 -39z
m-1152 -53 c-43 -47 -80 -85 -83 -85 -3 0 3 10 14 23 26 32 138 147 142 147 2
0 -31 -38 -73 -85z m-1271 -227 c14 -68 27 -157 30 -198 l5 -75 -15 90 c-14
87 -60 317 -69 352 -3 10 1 4 10 -14 8 -18 26 -87 39 -155z m1361 60 c-134
-141 -138 -145 -126 -122 12 24 186 204 197 204 4 0 -28 -37 -71 -82z m-2045
-745 c101 -33 182 -84 260 -164 55 -56 121 -149 106 -149 -2 0 -25 29 -50 64
-25 35 -69 85 -98 111 -68 59 -205 128 -288 144 -109 21 -132 29 -65 24 33 -3
94 -16 135 -30z m1278 -67 c53 -28 122 -119 122 -161 0 -8 9 -24 20 -35 26
-26 25 -32 -6 -69 -24 -29 -25 -34 -14 -62 14 -34 8 -48 -14 -30 -20 17 -35 6
-29 -19 3 -11 0 -20 -6 -20 -6 0 -11 5 -11 10 0 6 -9 10 -20 10 -17 0 -19 -5
-14 -25 7 -29 -3 -33 -21 -8 -15 21 -35 9 -28 -17 8 -31 -15 -24 -32 10 -14
28 -17 29 -64 23 -49 -6 -50 -5 -57 23 -3 16 -12 34 -18 39 -54 46 -92 142
-81 202 8 43 59 101 110 124 48 22 126 24 163 5z m665 -184 c69 -69 16 -182
-87 -182 -25 0 -45 9 -71 31 -30 26 -35 37 -35 74 0 46 26 90 64 106 38 16 97
3 129 -29z m-1782 -52 c96 -29 210 -108 241 -165 6 -11 -13 4 -43 33 -132 130
-343 174 -540 112 -73 -23 -82 -24 -54 -8 82 48 285 63 396 28z"/>
<path d="M3068 3414 c-25 -13 -48 -42 -48 -60 0 -4 14 5 31 22 27 25 38 29 90
29 50 0 57 2 42 13 -23 16 -82 15 -115 -4z"/>
<path d="M2730 1490 c-26 -26 -25 -46 5 -75 28 -29 42 -31 73 -9 44 31 16 104
-40 104 -10 0 -27 -9 -38 -20z"/>
<path d="M2576 1409 c-31 -24 -33 -52 -6 -79 37 -37 100 -14 100 38 0 18 -42
62 -60 62 -4 0 -19 -9 -34 -21z"/>
<path d="M2706 1354 c-10 -25 -7 -42 9 -58 13 -12 21 -13 40 -4 32 14 32 31
-1 57 -32 25 -40 26 -48 5z"/>
<path d="M584 3785 c0 -60 1 -84 3 -52 2 32 2 81 0 110 -2 29 -3 3 -3 -58z"/>
<path d="M2069 1473 c-13 -16 -12 -17 4 -4 9 7 17 15 17 17 0 8 -8 3 -21 -13z"/>
<path d="M2029 1443 c-13 -16 -12 -17 4 -4 9 7 17 15 17 17 0 8 -8 3 -21 -13z"/>
<path d="M1989 1413 c-13 -16 -12 -17 4 -4 9 7 17 15 17 17 0 8 -8 3 -21 -13z"/>
<path d="M1949 1383 c-13 -16 -12 -17 4 -4 16 13 21 21 13 21 -2 0 -10 -8 -17
-17z"/>
<path d="M4729 1353 l-24 -28 28 24 c15 14 27 26 27 28 0 8 -8 1 -31 -24z"/>
</g>
</svg>
